# xmcd CD database file
#
# Track frame offsets:
#	150
#	23509
#	48184
#	79159
#	100521
#	121859
#	147921
#	167921
#	183259
#	209034
#	232946
#	257984
#
# Disc length: 3661 seconds
#
# Revision: 0
# Processed by: cddbd v1.4PL0 Copyright (c) Steve Scherf et al.
# Submitted via: CDex 1.50
#
DISCID=980e4b0c
DTITLE=Barbara Leah Meyer - Winter Child
DYEAR=2001
DGENRE=Jazz
TTITLE0=Bridges
TTITLE1=I Thought About You
TTITLE2=Detour Ahead
TTITLE3=I've Never Been In Love Before
TTITLE4=Never Let Me Go
TTITLE5=Saudade
TTITLE6=Nature Boy
TTITLE7=Up Jumped Spring
TTITLE8=Like a Lover
TTITLE9=Winter Child
TTITLE10=So Many Stars
TTITLE11=Slap That Bass
EXTD=YEAR: 2001
EXTT0=
EXTT1=
EXTT2=
EXTT3=
EXTT4=
EXTT5=
EXTT6=
EXTT7=
EXTT8=
EXTT9=
EXTT10=
EXTT11=
PLAYORDER=
